M48
; DRILL file {KiCad 9.0.2} date 2025-10-09T00:11:24-0400
; FORMAT={-:-/ absolute / metric / decimal}
; #@! TF.CreationDate,2025-10-09T00:11:24-04:00
; #@! TF.GenerationSoftware,Kicad,Pcbnew,9.0.2
; #@! TF.FileFunction,Plated,1,4,PTH
FMAT,2
METRIC
; #@! TA.AperFunction,Plated,PTH,ViaDrill
T1C0.254
; #@! TA.AperFunction,Plated,PTH,ViaDrill
T2C0.300
; #@! TA.AperFunction,Plated,PTH,ComponentDrill
T3C1.000
; #@! TA.AperFunction,Plated,PTH,ComponentDrill
T4C1.100
%
G90
G05
T1
X93.2Y-136.6
X94.1Y-95.85
X97.5Y-97.4
X102.0Y-133.5
X103.0Y-88.5
X105.9Y-126.95
X106.5Y-137.0
X111.2Y-95.05
X111.425Y-97.939
X111.45Y-136.45
X111.7Y-91.55
X111.75Y-116.0
X111.8Y-92.35
X112.05Y-120.6
X113.849Y-102.386
X113.9Y-99.3
X114.0Y-120.7
X114.5Y-108.5
X115.7Y-116.3
X116.3Y-120.8
X116.35Y-101.85
X116.55Y-129.0
X116.65Y-100.8
X116.75Y-126.4
X119.075Y-91.375
X119.1Y-133.8
X119.4Y-119.85
X119.7Y-120.35
X121.25Y-117.6
X121.7Y-114.55
X122.5Y-102.0
X122.75Y-112.15
X125.0Y-106.5
X126.5Y-124.5
X127.85Y-109.55
X128.5Y-92.0
X128.8Y-120.075
X131.25Y-120.2
X131.7Y-138.85
X131.784Y-119.963
X131.9Y-123.35
X131.95Y-128.25
X131.95Y-139.3
X132.05Y-125.4
X132.9Y-117.35
X133.0Y-110.9
X133.3Y-119.95
X133.35Y-125.4
X133.4Y-123.45
X133.45Y-119.35
X133.5Y-108.0
X133.5Y-120.85
X133.65Y-117.1
X134.0Y-99.5
X134.65Y-117.25
X135.6Y-127.3
X135.95Y-132.45
X136.15Y-129.15
X136.65Y-118.7
X136.65Y-120.3
X136.8Y-123.25
X137.6Y-116.45
X138.0Y-90.0
X138.0Y-114.05
X138.05Y-96.4
X138.05Y-130.35
X138.65Y-117.35
X138.65Y-129.1
X139.45Y-126.75
X139.6Y-119.6
X139.7Y-123.2
X141.15Y-118.7
X141.15Y-128.95
X141.25Y-121.45
X141.25Y-124.4
X141.25Y-127.15
X141.65Y-99.25
X143.3Y-120.05
X143.4Y-120.95
X143.9Y-117.3
X144.7Y-122.25
X144.85Y-128.3
X144.9Y-125.45
X144.95Y-134.4
X145.05Y-119.981
X145.05Y-124.55
X145.2Y-116.85
X145.25Y-118.15
X145.4Y-133.15
X146.0Y-125.35
X146.6Y-114.2
X146.65Y-135.65
X146.927Y-119.923
X147.3Y-125.55
X147.5Y-100.55
X148.15Y-94.6
X148.3Y-91.75
X149.4Y-130.5
X149.65Y-127.331
X151.0Y-114.05
X151.7Y-119.95
X154.0Y-100.05
X154.7Y-123.75
X157.5Y-127.0
X159.0Y-104.55
X159.0Y-109.55
X159.95Y-93.4
X161.5Y-135.0
X163.0Y-99.05
X166.0Y-105.55
X166.8Y-91.15
X167.5Y-110.05
X167.5Y-137.0
X168.7Y-101.65
X170.05Y-135.0
T2
X105.1Y-101.56
X108.35Y-100.95
X109.5Y-109.0
X142.4Y-129.0
X146.0Y-129.5
T3
X127.425Y-89.625
X129.425Y-89.625
T4
X99.944Y-118.5
M30
