%TF.GenerationSoftware,KiCad,Pcbnew,9.0.2*%
%TF.CreationDate,2025-10-09T00:11:32-04:00*%
%TF.ProjectId,attempt2,61747465-6d70-4743-922e-6b696361645f,v1.0*%
%TF.SameCoordinates,Original*%
%TF.FileFunction,Copper,L2,Inr*%
%TF.FilePolarity,Positive*%
%FSLAX46Y46*%
G04 Gerber Fmt 4.6, Leading zero omitted, Abs format (unit mm)*
G04 Created by KiCad (PCBNEW 9.0.2) date 2025-10-09 00:11:32*
%MOMM*%
%LPD*%
G01*
G04 APERTURE LIST*
%TA.AperFunction,ComponentPad*%
%ADD10C,1.650000*%
%TD*%
%TA.AperFunction,ComponentPad*%
%ADD11C,1.508000*%
%TD*%
%TA.AperFunction,ViaPad*%
%ADD12C,0.457200*%
%TD*%
%TA.AperFunction,ViaPad*%
%ADD13C,0.600000*%
%TD*%
G04 APERTURE END LIST*
D10*
X99943750Y-118500000D03*
D11*
X129425000Y-89625000D03*
X127425000Y-89625000D03*
D12*
X141250000Y-127150000D03*
X115700000Y-116300000D03*
X128500000Y-92000000D03*
X145200000Y-116850000D03*
X141150000Y-118700000D03*
X136650000Y-118700000D03*
X119700000Y-120350000D03*
X167500000Y-110050000D03*
X148150000Y-94600000D03*
X168700000Y-101650000D03*
X144850000Y-128300000D03*
X113900000Y-99300000D03*
X133350000Y-125400000D03*
X144950000Y-134400000D03*
X122500000Y-102000000D03*
X132050000Y-125400000D03*
X119400000Y-119850000D03*
X144900000Y-125450000D03*
X146650000Y-135650000D03*
X146600000Y-114200000D03*
X133000000Y-110900000D03*
X125000000Y-106500000D03*
X143900000Y-117300000D03*
X141150000Y-128950000D03*
X133450000Y-119350000D03*
X138650000Y-117350000D03*
X138000000Y-114050000D03*
X138050000Y-96400000D03*
X159000000Y-109550000D03*
X132900000Y-117350000D03*
X131950000Y-139300000D03*
X106500000Y-137000000D03*
X105900000Y-126950000D03*
X114000000Y-120700000D03*
X133650000Y-117100000D03*
X94100000Y-95850000D03*
X111750000Y-116000000D03*
X141250000Y-124400000D03*
X146000000Y-125350000D03*
X112050000Y-120600000D03*
X138050000Y-130350000D03*
X134000000Y-99500000D03*
X159000000Y-104550000D03*
X148300000Y-91750000D03*
X93200000Y-136600000D03*
X133400000Y-123450000D03*
X136150000Y-129150000D03*
X141250000Y-121450000D03*
X134650000Y-117250000D03*
X103000000Y-88500000D03*
X141650000Y-99250000D03*
X138650000Y-129100000D03*
X126500000Y-124500000D03*
X131900000Y-123350000D03*
X159950000Y-93400000D03*
D13*
X109500000Y-109000000D03*
D12*
X157500000Y-127000000D03*
X116300000Y-120800000D03*
X139450000Y-126750000D03*
X102000000Y-133500000D03*
X114500000Y-108500000D03*
X166000000Y-105550000D03*
X136650000Y-120300000D03*
X144700000Y-122250000D03*
X127850000Y-109550000D03*
D13*
X142400000Y-129000000D03*
D12*
X138000000Y-90000000D03*
D13*
X146000000Y-129500000D03*
D12*
X136800000Y-123250000D03*
X135950000Y-132450000D03*
X143400000Y-120950000D03*
X167500000Y-137000000D03*
X145250000Y-118150000D03*
X139600000Y-119600000D03*
X170050000Y-135000000D03*
D13*
X105100000Y-101560000D03*
D12*
X163000000Y-99050000D03*
X119100000Y-133800000D03*
X151000000Y-114050000D03*
X135600000Y-127300000D03*
X133500000Y-120850000D03*
X154000000Y-100050000D03*
X166800000Y-91150000D03*
X161500000Y-135000000D03*
D13*
X108350000Y-100950000D03*
D12*
X133500000Y-108000000D03*
X139700000Y-123200000D03*
X131950000Y-128250000D03*
X131700000Y-138850000D03*
X147500000Y-100550000D03*
X121250000Y-117600000D03*
X97500000Y-97400000D03*
X111450000Y-136450000D03*
X111425000Y-97939400D03*
X113849195Y-102385600D03*
X151700000Y-119950000D03*
X154700000Y-123750000D03*
X122750000Y-112150000D03*
X128800000Y-120074900D03*
X119075000Y-91375000D03*
X111700000Y-91550000D03*
X137600000Y-116450000D03*
X133300000Y-119950000D03*
X146926661Y-119923339D03*
X145050000Y-119980900D03*
X145400000Y-133150000D03*
X145050000Y-124550000D03*
X116650000Y-100800000D03*
X131783851Y-119962733D03*
X116350000Y-101850000D03*
X131250000Y-120200000D03*
X111800000Y-92350000D03*
X111200000Y-95050000D03*
X116750000Y-126400000D03*
X149650000Y-127330900D03*
X116550000Y-129000000D03*
X149400000Y-130500000D03*
X147300000Y-125550000D03*
X121700000Y-114550000D03*
X143300000Y-120050000D03*
%TA.AperFunction,Conductor*%
G36*
X176600194Y-87374806D02*
G01*
X176618500Y-87419000D01*
X176618500Y-140956000D01*
X176600194Y-141000194D01*
X176556000Y-141018500D01*
X88944000Y-141018500D01*
X88899806Y-141000194D01*
X88881500Y-140956000D01*
X88881500Y-133093509D01*
X144970900Y-133093509D01*
X144970900Y-133206490D01*
X144970901Y-133206498D01*
X145000140Y-133315623D01*
X145000141Y-133315626D01*
X145056635Y-133413475D01*
X145056638Y-133413479D01*
X145136520Y-133493361D01*
X145136524Y-133493364D01*
X145136526Y-133493366D01*
X145234373Y-133549858D01*
X145234376Y-133549859D01*
X145301154Y-133567751D01*
X145343508Y-133579100D01*
X145343509Y-133579100D01*
X145456491Y-133579100D01*
X145456492Y-133579100D01*
X145565627Y-133549858D01*
X145663474Y-133493366D01*
X145743366Y-133413474D01*
X145799858Y-133315627D01*
X145829100Y-133206492D01*
X145829100Y-133093508D01*
X145799858Y-132984373D01*
X145743366Y-132886526D01*
X145743364Y-132886524D01*
X145743361Y-132886520D01*
X145663479Y-132806638D01*
X145663475Y-132806635D01*
X145663474Y-132806634D01*
X145614550Y-132778388D01*
X145565626Y-132750141D01*
X145565623Y-132750140D01*
X145456498Y-132720901D01*
X145456493Y-132720900D01*
X145456492Y-132720900D01*
X145343508Y-132720900D01*
X145343507Y-132720900D01*
X145343501Y-132720901D01*
X145234376Y-132750140D01*
X145234373Y-132750141D01*
X145136524Y-132806635D01*
X145136520Y-132806638D01*
X145056638Y-132886520D01*
X145056635Y-132886524D01*
X145000141Y-132984373D01*
X145000140Y-132984376D01*
X144970901Y-133093501D01*
X144970900Y-133093509D01*
X88881500Y-133093509D01*
X88881500Y-130443509D01*
X148970900Y-130443509D01*
X148970900Y-130556490D01*
X148970901Y-130556498D01*
X149000140Y-130665623D01*
X149000141Y-130665626D01*
X149056635Y-130763475D01*
X149056638Y-130763479D01*
X149136520Y-130843361D01*
X149136524Y-130843364D01*
X149136526Y-130843366D01*
X149234373Y-130899858D01*
X149234376Y-130899859D01*
X149301154Y-130917751D01*
X149343508Y-130929100D01*
X149343509Y-130929100D01*
X149456491Y-130929100D01*
X149456492Y-130929100D01*
X149565627Y-130899858D01*
X149663474Y-130843366D01*
X149743366Y-130763474D01*
X149799858Y-130665627D01*
X149829100Y-130556492D01*
X149829100Y-130443508D01*
X149799858Y-130334373D01*
X149743366Y-130236526D01*
X149743364Y-130236524D01*
X149743361Y-130236520D01*
X149663479Y-130156638D01*
X149663475Y-130156635D01*
X149663474Y-130156634D01*
X149614550Y-130128388D01*
X149565626Y-130100141D01*
X149565623Y-130100140D01*
X149456498Y-130070901D01*
X149456493Y-130070900D01*
X149456492Y-130070900D01*
X149343508Y-130070900D01*
X149343507Y-130070900D01*
X149343501Y-130070901D01*
X149234376Y-130100140D01*
X149234373Y-130100141D01*
X149136524Y-130156635D01*
X149136520Y-130156638D01*
X149056638Y-130236520D01*
X149056635Y-130236524D01*
X149000141Y-130334373D01*
X149000140Y-130334376D01*
X148970901Y-130443501D01*
X148970900Y-130443509D01*
X88881500Y-130443509D01*
X88881500Y-128943509D01*
X116120900Y-128943509D01*
X116120900Y-129056490D01*
X116120901Y-129056498D01*
X116150140Y-129165623D01*
X116150141Y-129165626D01*
X116206635Y-129263475D01*
X116206638Y-129263479D01*
X116286520Y-129343361D01*
X116286524Y-129343364D01*
X116286526Y-129343366D01*
X116384373Y-129399858D01*
X116384376Y-129399859D01*
X116451154Y-129417751D01*
X116493508Y-129429100D01*
X116493509Y-129429100D01*
X116606491Y-129429100D01*
X116606492Y-129429100D01*
X116715627Y-129399858D01*
X116813474Y-129343366D01*
X116893366Y-129263474D01*
X116949858Y-129165627D01*
X116979100Y-129056492D01*
X116979100Y-128943508D01*
X116949858Y-128834373D01*
X116893366Y-128736526D01*
X116893364Y-128736524D01*
X116893361Y-128736520D01*
X116813479Y-128656638D01*
X116813475Y-128656635D01*
X116813474Y-128656634D01*
X116764550Y-128628388D01*
X116715626Y-128600141D01*
X116715623Y-128600140D01*
X116606498Y-128570901D01*
X116606493Y-128570900D01*
X116606492Y-128570900D01*
X116493508Y-128570900D01*
X116493507Y-128570900D01*
X116493501Y-128570901D01*
X116384376Y-128600140D01*
X116384373Y-128600141D01*
X116286524Y-128656635D01*
X116286520Y-128656638D01*
X116206638Y-128736520D01*
X116206635Y-128736524D01*
X116150141Y-128834373D01*
X116150140Y-128834376D01*
X116120901Y-128943501D01*
X116120900Y-128943509D01*
X88881500Y-128943509D01*
X88881500Y-127274409D01*
X149220900Y-127274409D01*
X149220900Y-127387390D01*
X149220901Y-127387398D01*
X149250140Y-127496523D01*
X149250141Y-127496526D01*
X149306635Y-127594375D01*
X149306638Y-127594379D01*
X149386520Y-127674261D01*
X149386524Y-127674264D01*
X149386526Y-127674266D01*
X149484373Y-127730758D01*
X149484376Y-127730759D01*
X149551154Y-127748651D01*
X149593508Y-127760000D01*
X149593509Y-127760000D01*
X149706491Y-127760000D01*
X149706492Y-127760000D01*
X149815627Y-127730758D01*
X149913474Y-127674266D01*
X149993366Y-127594374D01*
X150049858Y-127496527D01*
X150079100Y-127387392D01*
X150079100Y-127274408D01*
X150049858Y-127165273D01*
X149993366Y-127067426D01*
X149993364Y-127067424D01*
X149993361Y-127067420D01*
X149913479Y-126987538D01*
X149913475Y-126987535D01*
X149913474Y-126987534D01*
X149864550Y-126959288D01*
X149815626Y-126931041D01*
X149815623Y-126931040D01*
X149706498Y-126901801D01*
X149706493Y-126901800D01*
X149706492Y-126901800D01*
X149593508Y-126901800D01*
X149593507Y-126901800D01*
X149593501Y-126901801D01*
X149484376Y-126931040D01*
X149484373Y-126931041D01*
X149386524Y-126987535D01*
X149386520Y-126987538D01*
X149306638Y-127067420D01*
X149306635Y-127067424D01*
X149250141Y-127165273D01*
X149250140Y-127165276D01*
X149220901Y-127274401D01*
X149220900Y-127274409D01*
X88881500Y-127274409D01*
X88881500Y-126343509D01*
X116320900Y-126343509D01*
X116320900Y-126456490D01*
X116320901Y-126456498D01*
X116350140Y-126565623D01*
X116350141Y-126565626D01*
X116406635Y-126663475D01*
X116406638Y-126663479D01*
X116486520Y-126743361D01*
X116486524Y-126743364D01*
X116486526Y-126743366D01*
X116584373Y-126799858D01*
X116584376Y-126799859D01*
X116651154Y-126817751D01*
X116693508Y-126829100D01*
X116693509Y-126829100D01*
X116806491Y-126829100D01*
X116806492Y-126829100D01*
X116915627Y-126799858D01*
X117013474Y-126743366D01*
X117093366Y-126663474D01*
X117149858Y-126565627D01*
X117179100Y-126456492D01*
X117179100Y-126343508D01*
X117149858Y-126234373D01*
X117093366Y-126136526D01*
X117093364Y-126136524D01*
X117093361Y-126136520D01*
X117013479Y-126056638D01*
X117013475Y-126056635D01*
X117013474Y-126056634D01*
X116964550Y-126028388D01*
X116915626Y-126000141D01*
X116915623Y-126000140D01*
X116806498Y-125970901D01*
X116806493Y-125970900D01*
X116806492Y-125970900D01*
X116693508Y-125970900D01*
X116693507Y-125970900D01*
X116693501Y-125970901D01*
X116584376Y-126000140D01*
X116584373Y-126000141D01*
X116486524Y-126056635D01*
X116486520Y-126056638D01*
X116406638Y-126136520D01*
X116406635Y-126136524D01*
X116350141Y-126234373D01*
X116350140Y-126234376D01*
X116320901Y-126343501D01*
X116320900Y-126343509D01*
X88881500Y-126343509D01*
X88881500Y-125493509D01*
X146870900Y-125493509D01*
X146870900Y-125606490D01*
X146870901Y-125606498D01*
X146900140Y-125715623D01*
X146900141Y-125715626D01*
X146956635Y-125813475D01*
X146956638Y-125813479D01*
X147036520Y-125893361D01*
X147036524Y-125893364D01*
X147036526Y-125893366D01*
X147134373Y-125949858D01*
X147134376Y-125949859D01*
X147201154Y-125967751D01*
X147243508Y-125979100D01*
X147243509Y-125979100D01*
X147356491Y-125979100D01*
X147356492Y-125979100D01*
X147465627Y-125949858D01*
X147563474Y-125893366D01*
X147643366Y-125813474D01*
X147699858Y-125715627D01*
X147729100Y-125606492D01*
X147729100Y-125493508D01*
X147699858Y-125384373D01*
X147643366Y-125286526D01*
X147643364Y-125286524D01*
X147643361Y-125286520D01*
X147563479Y-125206638D01*
X147563475Y-125206635D01*
X147563474Y-125206634D01*
X147514550Y-125178388D01*
X147465626Y-125150141D01*
X147465623Y-125150140D01*
X147356498Y-125120901D01*
X147356493Y-125120900D01*
X147356492Y-125120900D01*
X147243508Y-125120900D01*
X147243507Y-125120900D01*
X147243501Y-125120901D01*
X147134376Y-125150140D01*
X147134373Y-125150141D01*
X147036524Y-125206635D01*
X147036520Y-125206638D01*
X146956638Y-125286520D01*
X146956635Y-125286524D01*
X146900141Y-125384373D01*
X146900140Y-125384376D01*
X146870901Y-125493501D01*
X146870900Y-125493509D01*
X88881500Y-125493509D01*
X88881500Y-124493509D01*
X144620900Y-124493509D01*
X144620900Y-124606490D01*
X144620901Y-124606498D01*
X144650140Y-124715623D01*
X144650141Y-124715626D01*
X144706635Y-124813475D01*
X144706638Y-124813479D01*
X144786520Y-124893361D01*
X144786524Y-124893364D01*
X144786526Y-124893366D01*
X144884373Y-124949858D01*
X144884376Y-124949859D01*
X144951154Y-124967751D01*
X144993508Y-124979100D01*
X144993509Y-124979100D01*
X145106491Y-124979100D01*
X145106492Y-124979100D01*
X145215627Y-124949858D01*
X145313474Y-124893366D01*
X145393366Y-124813474D01*
X145449858Y-124715627D01*
X145479100Y-124606492D01*
X145479100Y-124493508D01*
X145449858Y-124384373D01*
X145393366Y-124286526D01*
X145393364Y-124286524D01*
X145393361Y-124286520D01*
X145313479Y-124206638D01*
X145313475Y-124206635D01*
X145313474Y-124206634D01*
X145264550Y-124178388D01*
X145215626Y-124150141D01*
X145215623Y-124150140D01*
X145106498Y-124120901D01*
X145106493Y-124120900D01*
X145106492Y-124120900D01*
X144993508Y-124120900D01*
X144993507Y-124120900D01*
X144993501Y-124120901D01*
X144884376Y-124150140D01*
X144884373Y-124150141D01*
X144786524Y-124206635D01*
X144786520Y-124206638D01*
X144706638Y-124286520D01*
X144706635Y-124286524D01*
X144650141Y-124384373D01*
X144650140Y-124384376D01*
X144620901Y-124493501D01*
X144620900Y-124493509D01*
X88881500Y-124493509D01*
X88881500Y-123693509D01*
X154270900Y-123693509D01*
X154270900Y-123806490D01*
X154270901Y-123806498D01*
X154300140Y-123915623D01*
X154300141Y-123915626D01*
X154356635Y-124013475D01*
X154356638Y-124013479D01*
X154436520Y-124093361D01*
X154436524Y-124093364D01*
X154436526Y-124093366D01*
X154534373Y-124149858D01*
X154534376Y-124149859D01*
X154601154Y-124167751D01*
X154643508Y-124179100D01*
X154643509Y-124179100D01*
X154756491Y-124179100D01*
X154756492Y-124179100D01*
X154865627Y-124149858D01*
X154963474Y-124093366D01*
X155043366Y-124013474D01*
X155099858Y-123915627D01*
X155129100Y-123806492D01*
X155129100Y-123693508D01*
X155099858Y-123584373D01*
X155043366Y-123486526D01*
X155043364Y-123486524D01*
X155043361Y-123486520D01*
X154963479Y-123406638D01*
X154963475Y-123406635D01*
X154963474Y-123406634D01*
X154914550Y-123378388D01*
X154865626Y-123350141D01*
X154865623Y-123350140D01*
X154756498Y-123320901D01*
X154756493Y-123320900D01*
X154756492Y-123320900D01*
X154643508Y-123320900D01*
X154643507Y-123320900D01*
X154643501Y-123320901D01*
X154534376Y-123350140D01*
X154534373Y-123350141D01*
X154436524Y-123406635D01*
X154436520Y-123406638D01*
X154356638Y-123486520D01*
X154356635Y-123486524D01*
X154300141Y-123584373D01*
X154300140Y-123584376D01*
X154270901Y-123693501D01*
X154270900Y-123693509D01*
X88881500Y-123693509D01*
X88881500Y-120018409D01*
X128370900Y-120018409D01*
X128370900Y-120131390D01*
X128370901Y-120131398D01*
X128400140Y-120240523D01*
X128400141Y-120240526D01*
X128456635Y-120338375D01*
X128456638Y-120338379D01*
X128536520Y-120418261D01*
X128536524Y-120418264D01*
X128536526Y-120418266D01*
X128614837Y-120463479D01*
X128634373Y-120474758D01*
X128634376Y-120474759D01*
X128701154Y-120492651D01*
X128743508Y-120504000D01*
X128743509Y-120504000D01*
X128856491Y-120504000D01*
X128856492Y-120504000D01*
X128965627Y-120474758D01*
X129063474Y-120418266D01*
X129143366Y-120338374D01*
X129199858Y-120240527D01*
X129214250Y-120186814D01*
X129225854Y-120143509D01*
X130820900Y-120143509D01*
X130820900Y-120256490D01*
X130820901Y-120256498D01*
X130850140Y-120365623D01*
X130850141Y-120365626D01*
X130858878Y-120380758D01*
X130906633Y-120463473D01*
X130906635Y-120463475D01*
X130906638Y-120463479D01*
X130986520Y-120543361D01*
X130986524Y-120543364D01*
X130986526Y-120543366D01*
X131084373Y-120599858D01*
X131084376Y-120599859D01*
X131151154Y-120617751D01*
X131193508Y-120629100D01*
X131193509Y-120629100D01*
X131306491Y-120629100D01*
X131306492Y-120629100D01*
X131415627Y-120599858D01*
X131513474Y-120543366D01*
X131593366Y-120463474D01*
X131623158Y-120411870D01*
X131661108Y-120382750D01*
X131693460Y-120382750D01*
X131713703Y-120388174D01*
X131727354Y-120391832D01*
X131727357Y-120391832D01*
X131727359Y-120391833D01*
X131727360Y-120391833D01*
X131840342Y-120391833D01*
X131840343Y-120391833D01*
X131949478Y-120362591D01*
X132047325Y-120306099D01*
X132127217Y-120226207D01*
X132183709Y-120128360D01*
X132212951Y-120019225D01*
X132212951Y-119906241D01*
X132212924Y-119906143D01*
X132212776Y-119905585D01*
X132212776Y-119905584D01*
X132209540Y-119893509D01*
X132870900Y-119893509D01*
X132870900Y-120006490D01*
X132870901Y-120006498D01*
X132900140Y-120115623D01*
X132900141Y-120115626D01*
X132956635Y-120213475D01*
X132956638Y-120213479D01*
X133036520Y-120293361D01*
X133036524Y-120293364D01*
X133036526Y-120293366D01*
X133114482Y-120338374D01*
X133134373Y-120349858D01*
X133134376Y-120349859D01*
X133181894Y-120362591D01*
X133243508Y-120379100D01*
X133243509Y-120379100D01*
X133356491Y-120379100D01*
X133356492Y-120379100D01*
X133465627Y-120349858D01*
X133563474Y-120293366D01*
X133643366Y-120213474D01*
X133699858Y-120115627D01*
X133729100Y-120006492D01*
X133729100Y-119993509D01*
X142870900Y-119993509D01*
X142870900Y-120106490D01*
X142870901Y-120106498D01*
X142900140Y-120215623D01*
X142900141Y-120215626D01*
X142916742Y-120244379D01*
X142952373Y-120306094D01*
X142956635Y-120313475D01*
X142956638Y-120313479D01*
X143036520Y-120393361D01*
X143036524Y-120393364D01*
X143036526Y-120393366D01*
X143134373Y-120449858D01*
X143134376Y-120449859D01*
X143185186Y-120463473D01*
X143243508Y-120479100D01*
X143243509Y-120479100D01*
X143356491Y-120479100D01*
X143356492Y-120479100D01*
X143465627Y-120449858D01*
X143563474Y-120393366D01*
X143643366Y-120313474D01*
X143699858Y-120215627D01*
X143729100Y-120106492D01*
X143729100Y-119993508D01*
X143713832Y-119936524D01*
X143713822Y-119936488D01*
X143710586Y-119924409D01*
X144620900Y-119924409D01*
X144620900Y-120037390D01*
X144620901Y-120037398D01*
X144650140Y-120146523D01*
X144650141Y-120146526D01*
X144650142Y-120146527D01*
X144704412Y-120240526D01*
X144706635Y-120244375D01*
X144706638Y-120244379D01*
X144786520Y-120324261D01*
X144786524Y-120324264D01*
X144786526Y-120324266D01*
X144866325Y-120370338D01*
X144884373Y-120380758D01*
X144884376Y-120380759D01*
X144925706Y-120391833D01*
X144993508Y-120410000D01*
X144993509Y-120410000D01*
X145106491Y-120410000D01*
X145106492Y-120410000D01*
X145215627Y-120380758D01*
X145313474Y-120324266D01*
X145393366Y-120244374D01*
X145449858Y-120146527D01*
X145479100Y-120037392D01*
X145479100Y-119924408D01*
X145475781Y-119912021D01*
X145466914Y-119878927D01*
X145463677Y-119866848D01*
X146497561Y-119866848D01*
X146497561Y-119979829D01*
X146497562Y-119979837D01*
X146526801Y-120088962D01*
X146526802Y-120088965D01*
X146583296Y-120186814D01*
X146583299Y-120186818D01*
X146663181Y-120266700D01*
X146663185Y-120266703D01*
X146663187Y-120266705D01*
X146744195Y-120313475D01*
X146761034Y-120323197D01*
X146761037Y-120323198D01*
X146817680Y-120338375D01*
X146870169Y-120352439D01*
X146870170Y-120352439D01*
X146983152Y-120352439D01*
X146983153Y-120352439D01*
X147092288Y-120323197D01*
X147190135Y-120266705D01*
X147270027Y-120186813D01*
X147326519Y-120088966D01*
X147355761Y-119979831D01*
X147355761Y-119893509D01*
X151270900Y-119893509D01*
X151270900Y-120006490D01*
X151270901Y-120006498D01*
X151300140Y-120115623D01*
X151300141Y-120115626D01*
X151356635Y-120213475D01*
X151356638Y-120213479D01*
X151436520Y-120293361D01*
X151436524Y-120293364D01*
X151436526Y-120293366D01*
X151514482Y-120338374D01*
X151534373Y-120349858D01*
X151534376Y-120349859D01*
X151581894Y-120362591D01*
X151643508Y-120379100D01*
X151643509Y-120379100D01*
X151756491Y-120379100D01*
X151756492Y-120379100D01*
X151865627Y-120349858D01*
X151963474Y-120293366D01*
X152043366Y-120213474D01*
X152099858Y-120115627D01*
X152129100Y-120006492D01*
X152129100Y-119893508D01*
X152108138Y-119815276D01*
X152099859Y-119784376D01*
X152099858Y-119784373D01*
X152080510Y-119750862D01*
X152043366Y-119686526D01*
X152043364Y-119686524D01*
X152043361Y-119686520D01*
X151963479Y-119606638D01*
X151963475Y-119606635D01*
X151963474Y-119606634D01*
X151914550Y-119578388D01*
X151865626Y-119550141D01*
X151865623Y-119550140D01*
X151756498Y-119520901D01*
X151756493Y-119520900D01*
X151756492Y-119520900D01*
X151643508Y-119520900D01*
X151643507Y-119520900D01*
X151643501Y-119520901D01*
X151534376Y-119550140D01*
X151534373Y-119550141D01*
X151436524Y-119606635D01*
X151436520Y-119606638D01*
X151356638Y-119686520D01*
X151356635Y-119686524D01*
X151300141Y-119784373D01*
X151300140Y-119784376D01*
X151270901Y-119893501D01*
X151270900Y-119893509D01*
X147355761Y-119893509D01*
X147355761Y-119866847D01*
X147334238Y-119786520D01*
X147326520Y-119757715D01*
X147326519Y-119757712D01*
X147311407Y-119731538D01*
X147270027Y-119659865D01*
X147270025Y-119659863D01*
X147270022Y-119659859D01*
X147190140Y-119579977D01*
X147190136Y-119579974D01*
X147190135Y-119579973D01*
X147138466Y-119550142D01*
X147092287Y-119523480D01*
X147092284Y-119523479D01*
X146983159Y-119494240D01*
X146983154Y-119494239D01*
X146983153Y-119494239D01*
X146870169Y-119494239D01*
X146870168Y-119494239D01*
X146870162Y-119494240D01*
X146761037Y-119523479D01*
X146761034Y-119523480D01*
X146663185Y-119579974D01*
X146663181Y-119579977D01*
X146583299Y-119659859D01*
X146583296Y-119659863D01*
X146526802Y-119757712D01*
X146526801Y-119757715D01*
X146497562Y-119866840D01*
X146497561Y-119866848D01*
X145463677Y-119866848D01*
X145449859Y-119815276D01*
X145449858Y-119815273D01*
X145441122Y-119800142D01*
X145393366Y-119717426D01*
X145393364Y-119717424D01*
X145393361Y-119717420D01*
X145313479Y-119637538D01*
X145313475Y-119637535D01*
X145313474Y-119637534D01*
X145234796Y-119592109D01*
X145215626Y-119581041D01*
X145215623Y-119581040D01*
X145106498Y-119551801D01*
X145106493Y-119551800D01*
X145106492Y-119551800D01*
X144993508Y-119551800D01*
X144993507Y-119551800D01*
X144993501Y-119551801D01*
X144884376Y-119581040D01*
X144884373Y-119581041D01*
X144786524Y-119637535D01*
X144786520Y-119637538D01*
X144706638Y-119717420D01*
X144706635Y-119717424D01*
X144650141Y-119815273D01*
X144650140Y-119815276D01*
X144620901Y-119924401D01*
X144620900Y-119924409D01*
X143710586Y-119924409D01*
X143699859Y-119884376D01*
X143699858Y-119884373D01*
X143683843Y-119856634D01*
X143643366Y-119786526D01*
X143643364Y-119786524D01*
X143643361Y-119786520D01*
X143563479Y-119706638D01*
X143563475Y-119706635D01*
X143563474Y-119706634D01*
X143482468Y-119659865D01*
X143465626Y-119650141D01*
X143465623Y-119650140D01*
X143356498Y-119620901D01*
X143356493Y-119620900D01*
X143356492Y-119620900D01*
X143243508Y-119620900D01*
X143243507Y-119620900D01*
X143243501Y-119620901D01*
X143134376Y-119650140D01*
X143134373Y-119650141D01*
X143036524Y-119706635D01*
X143036520Y-119706638D01*
X142956638Y-119786520D01*
X142956635Y-119786524D01*
X142900141Y-119884373D01*
X142900140Y-119884376D01*
X142870901Y-119993501D01*
X142870900Y-119993509D01*
X133729100Y-119993509D01*
X133729100Y-119893508D01*
X133708138Y-119815276D01*
X133699859Y-119784376D01*
X133699858Y-119784373D01*
X133680510Y-119750862D01*
X133643366Y-119686526D01*
X133643364Y-119686524D01*
X133643361Y-119686520D01*
X133563479Y-119606638D01*
X133563475Y-119606635D01*
X133563474Y-119606634D01*
X133514550Y-119578388D01*
X133465626Y-119550141D01*
X133465623Y-119550140D01*
X133356498Y-119520901D01*
X133356493Y-119520900D01*
X133356492Y-119520900D01*
X133243508Y-119520900D01*
X133243507Y-119520900D01*
X133243501Y-119520901D01*
X133134376Y-119550140D01*
X133134373Y-119550141D01*
X133036524Y-119606635D01*
X133036520Y-119606638D01*
X132956638Y-119686520D01*
X132956635Y-119686524D01*
X132900141Y-119784373D01*
X132900140Y-119784376D01*
X132870901Y-119893501D01*
X132870900Y-119893509D01*
X132209540Y-119893509D01*
X132183710Y-119797109D01*
X132183709Y-119797106D01*
X132127217Y-119699259D01*
X132127215Y-119699257D01*
X132127212Y-119699253D01*
X132047330Y-119619371D01*
X132047326Y-119619368D01*
X132047325Y-119619367D01*
X131980944Y-119581042D01*
X131949477Y-119562874D01*
X131949474Y-119562873D01*
X131840349Y-119533634D01*
X131840344Y-119533633D01*
X131840343Y-119533633D01*
X131727359Y-119533633D01*
X131727358Y-119533633D01*
X131727352Y-119533634D01*
X131618227Y-119562873D01*
X131618224Y-119562874D01*
X131520375Y-119619368D01*
X131520371Y-119619371D01*
X131440489Y-119699253D01*
X131440484Y-119699259D01*
X131410691Y-119750862D01*
X131372740Y-119779982D01*
X131340390Y-119779982D01*
X131306493Y-119770900D01*
X131306492Y-119770900D01*
X131193508Y-119770900D01*
X131193507Y-119770900D01*
X131193501Y-119770901D01*
X131084376Y-119800140D01*
X131084373Y-119800141D01*
X130986524Y-119856635D01*
X130986520Y-119856638D01*
X130906638Y-119936520D01*
X130906635Y-119936524D01*
X130850141Y-120034373D01*
X130850140Y-120034376D01*
X130820901Y-120143501D01*
X130820900Y-120143509D01*
X129225854Y-120143509D01*
X129229100Y-120131394D01*
X129229100Y-120018409D01*
X129229098Y-120018401D01*
X129199859Y-119909276D01*
X129199858Y-119909273D01*
X129190752Y-119893501D01*
X129143366Y-119811426D01*
X129143364Y-119811424D01*
X129143361Y-119811420D01*
X129063479Y-119731538D01*
X129063475Y-119731535D01*
X129063474Y-119731534D01*
X128985518Y-119686526D01*
X128965626Y-119675041D01*
X128965623Y-119675040D01*
X128856498Y-119645801D01*
X128856493Y-119645800D01*
X128856492Y-119645800D01*
X128743508Y-119645800D01*
X128743507Y-119645800D01*
X128743501Y-119645801D01*
X128634376Y-119675040D01*
X128634373Y-119675041D01*
X128536524Y-119731535D01*
X128536520Y-119731538D01*
X128456638Y-119811420D01*
X128456635Y-119811424D01*
X128400141Y-119909273D01*
X128400140Y-119909276D01*
X128370901Y-120018401D01*
X128370900Y-120018409D01*
X88881500Y-120018409D01*
X88881500Y-118387317D01*
X98511950Y-118387317D01*
X98511950Y-118612682D01*
X98511951Y-118612698D01*
X98547205Y-118835278D01*
X98547205Y-118835279D01*
X98547206Y-118835281D01*
X98616849Y-119049620D01*
X98719165Y-119250427D01*
X98851634Y-119432755D01*
X98851637Y-119432758D01*
X98851640Y-119432762D01*
X99010987Y-119592109D01*
X99010990Y-119592111D01*
X99010995Y-119592116D01*
X99193323Y-119724585D01*
X99394130Y-119826901D01*
X99608469Y-119896544D01*
X99688836Y-119909273D01*
X99831051Y-119931798D01*
X99831057Y-119931798D01*
X99831065Y-119931800D01*
X99831067Y-119931800D01*
X100056433Y-119931800D01*
X100056435Y-119931800D01*
X100279031Y-119896544D01*
X100493370Y-119826901D01*
X100694177Y-119724585D01*
X100876505Y-119592116D01*
X101035866Y-119432755D01*
X101168335Y-119250427D01*
X101270651Y-119049620D01*
X101340294Y-118835281D01*
X101375550Y-118612685D01*
X101375550Y-118387315D01*
X101340294Y-118164719D01*
X101270651Y-117950380D01*
X101168335Y-117749573D01*
X101035866Y-117567245D01*
X101035861Y-117567240D01*
X101035859Y-117567237D01*
X100876512Y-117407890D01*
X100876508Y-117407887D01*
X100876505Y-117407884D01*
X100694177Y-117275415D01*
X100493370Y-117173099D01*
X100493368Y-117173098D01*
X100279029Y-117103455D01*
X100056448Y-117068201D01*
X100056436Y-117068200D01*
X100056435Y-117068200D01*
X99831065Y-117068200D01*
X99831063Y-117068200D01*
X99831051Y-117068201D01*
X99608471Y-117103455D01*
X99608470Y-117103455D01*
X99394131Y-117173098D01*
X99394123Y-117173102D01*
X99199855Y-117272086D01*
X99193323Y-117275415D01*
X99010995Y-117407884D01*
X99010987Y-117407890D01*
X98851640Y-117567237D01*
X98719164Y-117749575D01*
X98616852Y-117950373D01*
X98616848Y-117950381D01*
X98547205Y-118164720D01*
X98547205Y-118164721D01*
X98511951Y-118387301D01*
X98511950Y-118387317D01*
X88881500Y-118387317D01*
X88881500Y-116393509D01*
X137170900Y-116393509D01*
X137170900Y-116506490D01*
X137170901Y-116506498D01*
X137200140Y-116615623D01*
X137200141Y-116615626D01*
X137256635Y-116713475D01*
X137256638Y-116713479D01*
X137336520Y-116793361D01*
X137336524Y-116793364D01*
X137336526Y-116793366D01*
X137434373Y-116849858D01*
X137434376Y-116849859D01*
X137501154Y-116867751D01*
X137543508Y-116879100D01*
X137543509Y-116879100D01*
X137656491Y-116879100D01*
X137656492Y-116879100D01*
X137765627Y-116849858D01*
X137863474Y-116793366D01*
X137943366Y-116713474D01*
X137999858Y-116615627D01*
X138029100Y-116506492D01*
X138029100Y-116393508D01*
X137999858Y-116284373D01*
X137943366Y-116186526D01*
X137943364Y-116186524D01*
X137943361Y-116186520D01*
X137863479Y-116106638D01*
X137863475Y-116106635D01*
X137863474Y-116106634D01*
X137814550Y-116078388D01*
X137765626Y-116050141D01*
X137765623Y-116050140D01*
X137656498Y-116020901D01*
X137656493Y-116020900D01*
X137656492Y-116020900D01*
X137543508Y-116020900D01*
X137543507Y-116020900D01*
X137543501Y-116020901D01*
X137434376Y-116050140D01*
X137434373Y-116050141D01*
X137336524Y-116106635D01*
X137336520Y-116106638D01*
X137256638Y-116186520D01*
X137256635Y-116186524D01*
X137200141Y-116284373D01*
X137200140Y-116284376D01*
X137170901Y-116393501D01*
X137170900Y-116393509D01*
X88881500Y-116393509D01*
X88881500Y-114493509D01*
X121270900Y-114493509D01*
X121270900Y-114606490D01*
X121270901Y-114606498D01*
X121300140Y-114715623D01*
X121300141Y-114715626D01*
X121356635Y-114813475D01*
X121356638Y-114813479D01*
X121436520Y-114893361D01*
X121436524Y-114893364D01*
X121436526Y-114893366D01*
X121534373Y-114949858D01*
X121534376Y-114949859D01*
X121601154Y-114967751D01*
X121643508Y-114979100D01*
X121643509Y-114979100D01*
X121756491Y-114979100D01*
X121756492Y-114979100D01*
X121865627Y-114949858D01*
X121963474Y-114893366D01*
X122043366Y-114813474D01*
X122099858Y-114715627D01*
X122129100Y-114606492D01*
X122129100Y-114493508D01*
X122099858Y-114384373D01*
X122043366Y-114286526D01*
X122043364Y-114286524D01*
X122043361Y-114286520D01*
X121963479Y-114206638D01*
X121963475Y-114206635D01*
X121963474Y-114206634D01*
X121914550Y-114178388D01*
X121865626Y-114150141D01*
X121865623Y-114150140D01*
X121756498Y-114120901D01*
X121756493Y-114120900D01*
X121756492Y-114120900D01*
X121643508Y-114120900D01*
X121643507Y-114120900D01*
X121643501Y-114120901D01*
X121534376Y-114150140D01*
X121534373Y-114150141D01*
X121436524Y-114206635D01*
X121436520Y-114206638D01*
X121356638Y-114286520D01*
X121356635Y-114286524D01*
X121300141Y-114384373D01*
X121300140Y-114384376D01*
X121270901Y-114493501D01*
X121270900Y-114493509D01*
X88881500Y-114493509D01*
X88881500Y-112093509D01*
X122320900Y-112093509D01*
X122320900Y-112206490D01*
X122320901Y-112206498D01*
X122350140Y-112315623D01*
X122350141Y-112315626D01*
X122406635Y-112413475D01*
X122406638Y-112413479D01*
X122486520Y-112493361D01*
X122486524Y-112493364D01*
X122486526Y-112493366D01*
X122584373Y-112549858D01*
X122584376Y-112549859D01*
X122651154Y-112567751D01*
X122693508Y-112579100D01*
X122693509Y-112579100D01*
X122806491Y-112579100D01*
X122806492Y-112579100D01*
X122915627Y-112549858D01*
X123013474Y-112493366D01*
X123093366Y-112413474D01*
X123149858Y-112315627D01*
X123179100Y-112206492D01*
X123179100Y-112093508D01*
X123149858Y-111984373D01*
X123093366Y-111886526D01*
X123093364Y-111886524D01*
X123093361Y-111886520D01*
X123013479Y-111806638D01*
X123013475Y-111806635D01*
X123013474Y-111806634D01*
X122964550Y-111778388D01*
X122915626Y-111750141D01*
X122915623Y-111750140D01*
X122806498Y-111720901D01*
X122806493Y-111720900D01*
X122806492Y-111720900D01*
X122693508Y-111720900D01*
X122693507Y-111720900D01*
X122693501Y-111720901D01*
X122584376Y-111750140D01*
X122584373Y-111750141D01*
X122486524Y-111806635D01*
X122486520Y-111806638D01*
X122406638Y-111886520D01*
X122406635Y-111886524D01*
X122350141Y-111984373D01*
X122350140Y-111984376D01*
X122320901Y-112093501D01*
X122320900Y-112093509D01*
X88881500Y-112093509D01*
X88881500Y-102329109D01*
X113420095Y-102329109D01*
X113420095Y-102442090D01*
X113420096Y-102442098D01*
X113449335Y-102551223D01*
X113449336Y-102551226D01*
X113505830Y-102649075D01*
X113505833Y-102649079D01*
X113585715Y-102728961D01*
X113585719Y-102728964D01*
X113585721Y-102728966D01*
X113683568Y-102785458D01*
X113683571Y-102785459D01*
X113750349Y-102803351D01*
X113792703Y-102814700D01*
X113792704Y-102814700D01*
X113905686Y-102814700D01*
X113905687Y-102814700D01*
X114014822Y-102785458D01*
X114112669Y-102728966D01*
X114192561Y-102649074D01*
X114249053Y-102551227D01*
X114278295Y-102442092D01*
X114278295Y-102329108D01*
X114257061Y-102249859D01*
X114249054Y-102219976D01*
X114249053Y-102219973D01*
X114233690Y-102193364D01*
X114192561Y-102122126D01*
X114192559Y-102122124D01*
X114192556Y-102122120D01*
X114112674Y-102042238D01*
X114112670Y-102042235D01*
X114112669Y-102042234D01*
X114063745Y-102013988D01*
X114014821Y-101985741D01*
X114014818Y-101985740D01*
X113905693Y-101956501D01*
X113905688Y-101956500D01*
X113905687Y-101956500D01*
X113792703Y-101956500D01*
X113792702Y-101956500D01*
X113792696Y-101956501D01*
X113683571Y-101985740D01*
X113683568Y-101985741D01*
X113585719Y-102042235D01*
X113585715Y-102042238D01*
X113505833Y-102122120D01*
X113505830Y-102122124D01*
X113449336Y-102219973D01*
X113449335Y-102219976D01*
X113420096Y-102329101D01*
X113420095Y-102329109D01*
X88881500Y-102329109D01*
X88881500Y-101793509D01*
X115920900Y-101793509D01*
X115920900Y-101906490D01*
X115920901Y-101906498D01*
X115950140Y-102015623D01*
X115950141Y-102015626D01*
X116006635Y-102113475D01*
X116006638Y-102113479D01*
X116086520Y-102193361D01*
X116086524Y-102193364D01*
X116086526Y-102193366D01*
X116184373Y-102249858D01*
X116184376Y-102249859D01*
X116251154Y-102267751D01*
X116293508Y-102279100D01*
X116293509Y-102279100D01*
X116406491Y-102279100D01*
X116406492Y-102279100D01*
X116515627Y-102249858D01*
X116613474Y-102193366D01*
X116693366Y-102113474D01*
X116749858Y-102015627D01*
X116779100Y-101906492D01*
X116779100Y-101793508D01*
X116749858Y-101684373D01*
X116693366Y-101586526D01*
X116693364Y-101586524D01*
X116693361Y-101586520D01*
X116613479Y-101506638D01*
X116613475Y-101506635D01*
X116613474Y-101506634D01*
X116564550Y-101478388D01*
X116515626Y-101450141D01*
X116515623Y-101450140D01*
X116406498Y-101420901D01*
X116406493Y-101420900D01*
X116406492Y-101420900D01*
X116293508Y-101420900D01*
X116293507Y-101420900D01*
X116293501Y-101420901D01*
X116184376Y-101450140D01*
X116184373Y-101450141D01*
X116086524Y-101506635D01*
X116086520Y-101506638D01*
X116006638Y-101586520D01*
X116006635Y-101586524D01*
X115950141Y-101684373D01*
X115950140Y-101684376D01*
X115920901Y-101793501D01*
X115920900Y-101793509D01*
X88881500Y-101793509D01*
X88881500Y-100743509D01*
X116220900Y-100743509D01*
X116220900Y-100856490D01*
X116220901Y-100856498D01*
X116250140Y-100965623D01*
X116250141Y-100965626D01*
X116306635Y-101063475D01*
X116306638Y-101063479D01*
X116386520Y-101143361D01*
X116386524Y-101143364D01*
X116386526Y-101143366D01*
X116484373Y-101199858D01*
X116484376Y-101199859D01*
X116551154Y-101217751D01*
X116593508Y-101229100D01*
X116593509Y-101229100D01*
X116706491Y-101229100D01*
X116706492Y-101229100D01*
X116815627Y-101199858D01*
X116913474Y-101143366D01*
X116993366Y-101063474D01*
X117049858Y-100965627D01*
X117079100Y-100856492D01*
X117079100Y-100743508D01*
X117049858Y-100634373D01*
X116993366Y-100536526D01*
X116993364Y-100536524D01*
X116993361Y-100536520D01*
X116913479Y-100456638D01*
X116913475Y-100456635D01*
X116913474Y-100456634D01*
X116864550Y-100428388D01*
X116815626Y-100400141D01*
X116815623Y-100400140D01*
X116706498Y-100370901D01*
X116706493Y-100370900D01*
X116706492Y-100370900D01*
X116593508Y-100370900D01*
X116593507Y-100370900D01*
X116593501Y-100370901D01*
X116484376Y-100400140D01*
X116484373Y-100400141D01*
X116386524Y-100456635D01*
X116386520Y-100456638D01*
X116306638Y-100536520D01*
X116306635Y-100536524D01*
X116250141Y-100634373D01*
X116250140Y-100634376D01*
X116220901Y-100743501D01*
X116220900Y-100743509D01*
X88881500Y-100743509D01*
X88881500Y-97882909D01*
X110995900Y-97882909D01*
X110995900Y-97995890D01*
X110995901Y-97995898D01*
X111025140Y-98105023D01*
X111025141Y-98105026D01*
X111081635Y-98202875D01*
X111081638Y-98202879D01*
X111161520Y-98282761D01*
X111161524Y-98282764D01*
X111161526Y-98282766D01*
X111259373Y-98339258D01*
X111259376Y-98339259D01*
X111326154Y-98357151D01*
X111368508Y-98368500D01*
X111368509Y-98368500D01*
X111481491Y-98368500D01*
X111481492Y-98368500D01*
X111590627Y-98339258D01*
X111688474Y-98282766D01*
X111768366Y-98202874D01*
X111824858Y-98105027D01*
X111854100Y-97995892D01*
X111854100Y-97882908D01*
X111824858Y-97773773D01*
X111768366Y-97675926D01*
X111768364Y-97675924D01*
X111768361Y-97675920D01*
X111688479Y-97596038D01*
X111688475Y-97596035D01*
X111688474Y-97596034D01*
X111639550Y-97567788D01*
X111590626Y-97539541D01*
X111590623Y-97539540D01*
X111481498Y-97510301D01*
X111481493Y-97510300D01*
X111481492Y-97510300D01*
X111368508Y-97510300D01*
X111368507Y-97510300D01*
X111368501Y-97510301D01*
X111259376Y-97539540D01*
X111259373Y-97539541D01*
X111161524Y-97596035D01*
X111161520Y-97596038D01*
X111081638Y-97675920D01*
X111081635Y-97675924D01*
X111025141Y-97773773D01*
X111025140Y-97773776D01*
X110995901Y-97882901D01*
X110995900Y-97882909D01*
X88881500Y-97882909D01*
X88881500Y-94993509D01*
X110770900Y-94993509D01*
X110770900Y-95106490D01*
X110770901Y-95106498D01*
X110800140Y-95215623D01*
X110800141Y-95215626D01*
X110856635Y-95313475D01*
X110856638Y-95313479D01*
X110936520Y-95393361D01*
X110936524Y-95393364D01*
X110936526Y-95393366D01*
X111034373Y-95449858D01*
X111034376Y-95449859D01*
X111101154Y-95467751D01*
X111143508Y-95479100D01*
X111143509Y-95479100D01*
X111256491Y-95479100D01*
X111256492Y-95479100D01*
X111365627Y-95449858D01*
X111463474Y-95393366D01*
X111543366Y-95313474D01*
X111599858Y-95215627D01*
X111629100Y-95106492D01*
X111629100Y-94993508D01*
X111599858Y-94884373D01*
X111543366Y-94786526D01*
X111543364Y-94786524D01*
X111543361Y-94786520D01*
X111463479Y-94706638D01*
X111463475Y-94706635D01*
X111463474Y-94706634D01*
X111414550Y-94678388D01*
X111365626Y-94650141D01*
X111365623Y-94650140D01*
X111256498Y-94620901D01*
X111256493Y-94620900D01*
X111256492Y-94620900D01*
X111143508Y-94620900D01*
X111143507Y-94620900D01*
X111143501Y-94620901D01*
X111034376Y-94650140D01*
X111034373Y-94650141D01*
X110936524Y-94706635D01*
X110936520Y-94706638D01*
X110856638Y-94786520D01*
X110856635Y-94786524D01*
X110800141Y-94884373D01*
X110800140Y-94884376D01*
X110770901Y-94993501D01*
X110770900Y-94993509D01*
X88881500Y-94993509D01*
X88881500Y-92390428D01*
X109307500Y-92390428D01*
X109307500Y-92509571D01*
X109307501Y-92509579D01*
X109338335Y-92624655D01*
X109338336Y-92624658D01*
X109397911Y-92727843D01*
X109397914Y-92727847D01*
X109482152Y-92812085D01*
X109482156Y-92812088D01*
X109482158Y-92812090D01*
X109585341Y-92871663D01*
X109585344Y-92871664D01*
X109655769Y-92890534D01*
X109700427Y-92902500D01*
X109700428Y-92902500D01*
X109819572Y-92902500D01*
X109819573Y-92902500D01*
X109934659Y-92871663D01*
X110037842Y-92812090D01*
X110122090Y-92727842D01*
X110181663Y-92624659D01*
X110212500Y-92509573D01*
X110212500Y-92390427D01*
X110181663Y-92275341D01*
X110122090Y-92172158D01*
X110122088Y-92172156D01*
X110122085Y-92172152D01*
X110037847Y-92087914D01*
X110037843Y-92087911D01*
X110037842Y-92087910D01*
X109986250Y-92058123D01*
X109934658Y-92028336D01*
X109934655Y-92028335D01*
X109819579Y-91997501D01*
X109819574Y-91997500D01*
X109819573Y-91997500D01*
X109700427Y-91997500D01*
X109700426Y-91997500D01*
X109700420Y-91997501D01*
X109585344Y-92028335D01*
X109585341Y-92028336D01*
X109482156Y-92087911D01*
X109482152Y-92087914D01*
X109397914Y-92172152D01*
X109397911Y-92172156D01*
X109338336Y-92275341D01*
X109338335Y-92275344D01*
X109307501Y-92390420D01*
X109307500Y-92390428D01*
X88881500Y-92390428D01*
X88881500Y-91493509D01*
X111270900Y-91493509D01*
X111270900Y-91606490D01*
X111270901Y-91606498D01*
X111300140Y-91715623D01*
X111300141Y-91715626D01*
X111356635Y-91813475D01*
X111356638Y-91813479D01*
X111436520Y-91893361D01*
X111436529Y-91893368D01*
X111501192Y-91930702D01*
X111530312Y-91968652D01*
X111524068Y-92016078D01*
X111514137Y-92029022D01*
X111456635Y-92086524D01*
X111400141Y-92184373D01*
X111400140Y-92184376D01*
X111370901Y-92293501D01*
X111370900Y-92293509D01*
X111370900Y-92406490D01*
X111370901Y-92406498D01*
X111400140Y-92515623D01*
X111400141Y-92515626D01*
X111456635Y-92613475D01*
X111456638Y-92613479D01*
X111536520Y-92693361D01*
X111536524Y-92693364D01*
X111536526Y-92693366D01*
X111596242Y-92727843D01*
X111634373Y-92749858D01*
X111634376Y-92749859D01*
X111701154Y-92767751D01*
X111743508Y-92779100D01*
X111743509Y-92779100D01*
X111856491Y-92779100D01*
X111856492Y-92779100D01*
X111965627Y-92749858D01*
X112063474Y-92693366D01*
X112143366Y-92613474D01*
X112199858Y-92515627D01*
X112229100Y-92406492D01*
X112229100Y-92390428D01*
X115087500Y-92390428D01*
X115087500Y-92509571D01*
X115087501Y-92509579D01*
X115118335Y-92624655D01*
X115118336Y-92624658D01*
X115177911Y-92727843D01*
X115177914Y-92727847D01*
X115262152Y-92812085D01*
X115262156Y-92812088D01*
X115262158Y-92812090D01*
X115365341Y-92871663D01*
X115365344Y-92871664D01*
X115435769Y-92890534D01*
X115480427Y-92902500D01*
X115480428Y-92902500D01*
X115599572Y-92902500D01*
X115599573Y-92902500D01*
X115714659Y-92871663D01*
X115817842Y-92812090D01*
X115902090Y-92727842D01*
X115961663Y-92624659D01*
X115992500Y-92509573D01*
X115992500Y-92390427D01*
X115961663Y-92275341D01*
X115902090Y-92172158D01*
X115902088Y-92172156D01*
X115902085Y-92172152D01*
X115817847Y-92087914D01*
X115817843Y-92087911D01*
X115817842Y-92087910D01*
X115766250Y-92058123D01*
X115714658Y-92028336D01*
X115714655Y-92028335D01*
X115599579Y-91997501D01*
X115599574Y-91997500D01*
X115599573Y-91997500D01*
X115480427Y-91997500D01*
X115480426Y-91997500D01*
X115480420Y-91997501D01*
X115365344Y-92028335D01*
X115365341Y-92028336D01*
X115262156Y-92087911D01*
X115262152Y-92087914D01*
X115177914Y-92172152D01*
X115177911Y-92172156D01*
X115118336Y-92275341D01*
X115118335Y-92275344D01*
X115087501Y-92390420D01*
X115087500Y-92390428D01*
X112229100Y-92390428D01*
X112229100Y-92293508D01*
X112199858Y-92184373D01*
X112143366Y-92086526D01*
X112143364Y-92086524D01*
X112143361Y-92086520D01*
X112063479Y-92006638D01*
X112063470Y-92006631D01*
X111998806Y-91969297D01*
X111969686Y-91931347D01*
X111975930Y-91883921D01*
X111985859Y-91870980D01*
X112043366Y-91813474D01*
X112099858Y-91715627D01*
X112129100Y-91606492D01*
X112129100Y-91493508D01*
X112099858Y-91384373D01*
X112077507Y-91345661D01*
X112077507Y-91345659D01*
X112061832Y-91318509D01*
X118645900Y-91318509D01*
X118645900Y-91431490D01*
X118645901Y-91431498D01*
X118675140Y-91540623D01*
X118675141Y-91540626D01*
X118731635Y-91638475D01*
X118731638Y-91638479D01*
X118811520Y-91718361D01*
X118811524Y-91718364D01*
X118811526Y-91718366D01*
X118909373Y-91774858D01*
X118909376Y-91774859D01*
X118976154Y-91792751D01*
X119018508Y-91804100D01*
X119018509Y-91804100D01*
X119131491Y-91804100D01*
X119131492Y-91804100D01*
X119240627Y-91774858D01*
X119338474Y-91718366D01*
X119418366Y-91638474D01*
X119474858Y-91540627D01*
X119504100Y-91431492D01*
X119504100Y-91318508D01*
X119474858Y-91209373D01*
X119418366Y-91111526D01*
X119418364Y-91111524D01*
X119418361Y-91111520D01*
X119338479Y-91031638D01*
X119338475Y-91031635D01*
X119338474Y-91031634D01*
X119289550Y-91003388D01*
X119240626Y-90975141D01*
X119240623Y-90975140D01*
X119131498Y-90945901D01*
X119131493Y-90945900D01*
X119131492Y-90945900D01*
X119018508Y-90945900D01*
X119018507Y-90945900D01*
X119018501Y-90945901D01*
X118909376Y-90975140D01*
X118909373Y-90975141D01*
X118811524Y-91031635D01*
X118811520Y-91031638D01*
X118731638Y-91111520D01*
X118731635Y-91111524D01*
X118675141Y-91209373D01*
X118675140Y-91209376D01*
X118645901Y-91318501D01*
X118645900Y-91318509D01*
X112061832Y-91318509D01*
X112043368Y-91286529D01*
X112043361Y-91286520D01*
X111963479Y-91206638D01*
X111963475Y-91206635D01*
X111963474Y-91206634D01*
X111914550Y-91178388D01*
X111865626Y-91150141D01*
X111865623Y-91150140D01*
X111756498Y-91120901D01*
X111756493Y-91120900D01*
X111756492Y-91120900D01*
X111643508Y-91120900D01*
X111643507Y-91120900D01*
X111643501Y-91120901D01*
X111534376Y-91150140D01*
X111534373Y-91150141D01*
X111436524Y-91206635D01*
X111436520Y-91206638D01*
X111356638Y-91286520D01*
X111356635Y-91286524D01*
X111300141Y-91384373D01*
X111300140Y-91384376D01*
X111270901Y-91493501D01*
X111270900Y-91493509D01*
X88881500Y-91493509D01*
X88881500Y-89538228D01*
X126544000Y-89538228D01*
X126544000Y-89711771D01*
X126577854Y-89881972D01*
X126644267Y-90042307D01*
X126648220Y-90048224D01*
X126942036Y-89754407D01*
X126959075Y-89817993D01*
X127024901Y-89932007D01*
X127117993Y-90025099D01*
X127232007Y-90090925D01*
X127295590Y-90107962D01*
X127001773Y-90401779D01*
X127007688Y-90405730D01*
X127007692Y-90405733D01*
X127168023Y-90472144D01*
X127338228Y-90505999D01*
X127338229Y-90506000D01*
X127511771Y-90506000D01*
X127511771Y-90505999D01*
X127681972Y-90472145D01*
X127842316Y-90405728D01*
X127848224Y-90401780D01*
X127848225Y-90401779D01*
X127554408Y-90107962D01*
X127617993Y-90090925D01*
X127732007Y-90025099D01*
X127825099Y-89932007D01*
X127890925Y-89817993D01*
X127907962Y-89754408D01*
X128201779Y-90048225D01*
X128201780Y-90048224D01*
X128205728Y-90042316D01*
X128272145Y-89881972D01*
X128305999Y-89711771D01*
X128306000Y-89711771D01*
X128306000Y-89538229D01*
X128305999Y-89538226D01*
X128304559Y-89530989D01*
X128470500Y-89530989D01*
X128470500Y-89719010D01*
X128507180Y-89903415D01*
X128507180Y-89903416D01*
X128557583Y-90025099D01*
X128579133Y-90077125D01*
X128683592Y-90233458D01*
X128816542Y-90366408D01*
X128972875Y-90470867D01*
X129146583Y-90542819D01*
X129330990Y-90579500D01*
X129519010Y-90579500D01*
X129703417Y-90542819D01*
X129877125Y-90470867D01*
X130033458Y-90366408D01*
X130166408Y-90233458D01*
X130270867Y-90077125D01*
X130342819Y-89903417D01*
X130379500Y-89719010D01*
X130379500Y-89530990D01*
X130342819Y-89346583D01*
X130270867Y-89172875D01*
X130166408Y-89016542D01*
X130033458Y-88883592D01*
X130033457Y-88883591D01*
X129877127Y-88779134D01*
X129877125Y-88779133D01*
X129703415Y-88707180D01*
X129519010Y-88670500D01*
X129330990Y-88670500D01*
X129146584Y-88707180D01*
X129146583Y-88707180D01*
X128972874Y-88779133D01*
X128972872Y-88779134D01*
X128816542Y-88883591D01*
X128683591Y-89016542D01*
X128579134Y-89172872D01*
X128579133Y-89172874D01*
X128507180Y-89346583D01*
X128507180Y-89346584D01*
X128470500Y-89530989D01*
X128304559Y-89530989D01*
X128272144Y-89368023D01*
X128272144Y-89368022D01*
X128205733Y-89207692D01*
X128205730Y-89207688D01*
X128201779Y-89201773D01*
X127907962Y-89495590D01*
X127890925Y-89432007D01*
X127825099Y-89317993D01*
X127732007Y-89224901D01*
X127617993Y-89159075D01*
X127554407Y-89142036D01*
X127848224Y-88848220D01*
X127842307Y-88844267D01*
X127681972Y-88777854D01*
X127511771Y-88744000D01*
X127338229Y-88744000D01*
X127168023Y-88777855D01*
X127168022Y-88777855D01*
X127007690Y-88844267D01*
X127001774Y-88848219D01*
X127001774Y-88848220D01*
X127295591Y-89142037D01*
X127232007Y-89159075D01*
X127117993Y-89224901D01*
X127024901Y-89317993D01*
X126959075Y-89432007D01*
X126942037Y-89495591D01*
X126648220Y-89201774D01*
X126648219Y-89201774D01*
X126644267Y-89207690D01*
X126577855Y-89368022D01*
X126577855Y-89368023D01*
X126544000Y-89538228D01*
X88881500Y-89538228D01*
X88881500Y-87419000D01*
X88899806Y-87374806D01*
X88944000Y-87356500D01*
X176556000Y-87356500D01*
X176600194Y-87374806D01*
G37*
%TD.AperFunction*%
M02*
