%TF.GenerationSoftware,KiCad,Pcbnew,9.0.2*%
%TF.CreationDate,2025-10-09T00:11:32-04:00*%
%TF.ProjectId,attempt2,61747465-6d70-4743-922e-6b696361645f,v1.0*%
%TF.SameCoordinates,Original*%
%TF.FileFunction,Soldermask,Top*%
%TF.FilePolarity,Negative*%
%FSLAX46Y46*%
G04 Gerber Fmt 4.6, Leading zero omitted, Abs format (unit mm)*
G04 Created by KiCad (PCBNEW 9.0.2) date 2025-10-09 00:11:32*
%MOMM*%
%LPD*%
G01*
G04 APERTURE LIST*
G04 Aperture macros list*
%AMRoundRect*
0 Rectangle with rounded corners*
0 $1 Rounding radius*
0 $2 $3 $4 $5 $6 $7 $8 $9 X,Y pos of 4 corners*
0 Add a 4 corners polygon primitive as box body*
4,1,4,$2,$3,$4,$5,$6,$7,$8,$9,$2,$3,0*
0 Add four circle primitives for the rounded corners*
1,1,$1+$1,$2,$3*
1,1,$1+$1,$4,$5*
1,1,$1+$1,$6,$7*
1,1,$1+$1,$8,$9*
0 Add four rect primitives between the rounded corners*
20,1,$1+$1,$2,$3,$4,$5,0*
20,1,$1+$1,$4,$5,$6,$7,0*
20,1,$1+$1,$6,$7,$8,$9,0*
20,1,$1+$1,$8,$9,$2,$3,0*%
G04 Aperture macros list end*
%ADD10C,0.010000*%
%ADD11RoundRect,0.200000X-0.200000X-0.275000X0.200000X-0.275000X0.200000X0.275000X-0.200000X0.275000X0*%
%ADD12C,2.000000*%
%ADD13RoundRect,0.200000X-0.275000X0.200000X-0.275000X-0.200000X0.275000X-0.200000X0.275000X0.200000X0*%
%ADD14RoundRect,0.102000X-0.212500X-0.162500X0.212500X-0.162500X0.212500X0.162500X-0.212500X0.162500X0*%
%ADD15RoundRect,0.102000X-0.125000X-0.262500X0.125000X-0.262500X0.125000X0.262500X-0.125000X0.262500X0*%
%ADD16RoundRect,0.225000X0.225000X0.250000X-0.225000X0.250000X-0.225000X-0.250000X0.225000X-0.250000X0*%
%ADD17RoundRect,0.225000X0.375000X-0.225000X0.375000X0.225000X-0.375000X0.225000X-0.375000X-0.225000X0*%
%ADD18RoundRect,0.250000X0.650000X-0.400000X0.650000X0.400000X-0.650000X0.400000X-0.650000X-0.400000X0*%
%ADD19RoundRect,0.225000X-0.250000X0.225000X-0.250000X-0.225000X0.250000X-0.225000X0.250000X0.225000X0*%
%ADD20RoundRect,0.102000X0.225000X0.150000X-0.225000X0.150000X-0.225000X-0.150000X0.225000X-0.150000X0*%
%ADD21RoundRect,0.102000X0.350000X0.350000X-0.350000X0.350000X-0.350000X-0.350000X0.350000X-0.350000X0*%
%ADD22RoundRect,0.102000X0.150000X0.225000X-0.150000X0.225000X-0.150000X-0.225000X0.150000X-0.225000X0*%
%ADD23RoundRect,0.102000X0.100000X0.100000X-0.100000X0.100000X-0.100000X-0.100000X0.100000X-0.100000X0*%
%ADD24RoundRect,0.102000X0.800000X0.800000X-0.800000X0.800000X-0.800000X-0.800000X0.800000X-0.800000X0*%
%ADD25RoundRect,0.102000X0.800000X0.975000X-0.800000X0.975000X-0.800000X-0.975000X0.800000X-0.975000X0*%
%ADD26R,0.900000X1.000000*%
%ADD27RoundRect,0.058000X-0.174000X0.464000X-0.174000X-0.464000X0.174000X-0.464000X0.174000X0.464000X0*%
%ADD28RoundRect,0.058000X-0.464000X0.174000X-0.464000X-0.174000X0.464000X-0.174000X0.464000X0.174000X0*%
%ADD29RoundRect,0.102000X-1.225000X1.225000X-1.225000X-1.225000X1.225000X-1.225000X1.225000X1.225000X0*%
%ADD30C,1.854000*%
%ADD31RoundRect,0.250000X0.550000X-0.350000X0.550000X0.350000X-0.550000X0.350000X-0.550000X-0.350000X0*%
%ADD32RoundRect,0.250000X0.375000X0.625000X-0.375000X0.625000X-0.375000X-0.625000X0.375000X-0.625000X0*%
%ADD33RoundRect,0.225000X-0.225000X-0.250000X0.225000X-0.250000X0.225000X0.250000X-0.225000X0.250000X0*%
%ADD34R,1.000000X3.000000*%
%ADD35RoundRect,0.200000X0.200000X0.275000X-0.200000X0.275000X-0.200000X-0.275000X0.200000X-0.275000X0*%
%ADD36RoundRect,0.225000X0.250000X-0.225000X0.250000X0.225000X-0.250000X0.225000X-0.250000X-0.225000X0*%
%ADD37RoundRect,0.250000X-0.625000X0.375000X-0.625000X-0.375000X0.625000X-0.375000X0.625000X0.375000X0*%
%ADD38RoundRect,0.218750X0.218750X0.256250X-0.218750X0.256250X-0.218750X-0.256250X0.218750X-0.256250X0*%
%ADD39RoundRect,0.102000X-0.500000X-1.900000X0.500000X-1.900000X0.500000X1.900000X-0.500000X1.900000X0*%
%ADD40RoundRect,0.102000X-0.600000X-0.450000X0.600000X-0.450000X0.600000X0.450000X-0.600000X0.450000X0*%
%ADD41C,0.650000*%
%ADD42RoundRect,0.150000X0.150000X0.425000X-0.150000X0.425000X-0.150000X-0.425000X0.150000X-0.425000X0*%
%ADD43RoundRect,0.075000X0.075000X0.500000X-0.075000X0.500000X-0.075000X-0.500000X0.075000X-0.500000X0*%
%ADD44RoundRect,0.250000X0.840000X0.750000X-0.840000X0.750000X-0.840000X-0.750000X0.840000X-0.750000X0*%
%ADD45R,2.800000X1.000000*%
%ADD46C,1.712000*%
%ADD47C,0.454000*%
%ADD48RoundRect,0.102000X0.279400X-0.635000X0.279400X0.635000X-0.279400X0.635000X-0.279400X-0.635000X0*%
G04 APERTURE END LIST*
D10*
X144300000Y-128550000D02*
X143500000Y-128550000D01*
X143500000Y-128028000D01*
X143778000Y-127750000D01*
X144300000Y-127750000D01*
X144300000Y-128550000D01*
G36*
X144300000Y-128550000D02*
G01*
X143500000Y-128550000D01*
X143500000Y-128028000D01*
X143778000Y-127750000D01*
X144300000Y-127750000D01*
X144300000Y-128550000D01*
G37*
D11*
X117875000Y-126450000D03*
X119525000Y-126450000D03*
X117625000Y-131750000D03*
X119275000Y-131750000D03*
D12*
X111300000Y-103825000D03*
D13*
X145950000Y-121725000D03*
X145950000Y-123375000D03*
D14*
X131137500Y-118762500D03*
D15*
X130550000Y-118662500D03*
D14*
X129962500Y-119050000D03*
D15*
X130550000Y-119437500D03*
D14*
X131137500Y-119337500D03*
D16*
X120218750Y-116600000D03*
X118668750Y-116600000D03*
D17*
X155650000Y-124420000D03*
X155650000Y-121880000D03*
X155650000Y-119340000D03*
X155650000Y-123150000D03*
X155650000Y-120610000D03*
X155650000Y-118070000D03*
D18*
X159750000Y-127400000D03*
X168550000Y-127400000D03*
X159750000Y-115100000D03*
X168550000Y-115100000D03*
D19*
X150650000Y-124825000D03*
X150650000Y-126375000D03*
D20*
X144025000Y-127400000D03*
X144025000Y-126900000D03*
X144025000Y-126400000D03*
X144025000Y-125900000D03*
X144025000Y-125400000D03*
X144025000Y-124900000D03*
X144025000Y-124400000D03*
X144025000Y-123900000D03*
X144025000Y-123400000D03*
X144025000Y-122900000D03*
X144025000Y-122400000D03*
X144025000Y-121900000D03*
X144025000Y-121400000D03*
X144025000Y-120900000D03*
X144025000Y-120400000D03*
X144025000Y-119900000D03*
X144025000Y-119400000D03*
X144025000Y-118900000D03*
D21*
X143900000Y-118150000D03*
D22*
X143150000Y-118025000D03*
X142650000Y-118025000D03*
X142150000Y-118025000D03*
X141650000Y-118025000D03*
X141150000Y-118025000D03*
X140650000Y-118025000D03*
X140150000Y-118025000D03*
X139650000Y-118025000D03*
X139150000Y-118025000D03*
X138650000Y-118025000D03*
X138150000Y-118025000D03*
X137650000Y-118025000D03*
X137150000Y-118025000D03*
X136650000Y-118025000D03*
X136150000Y-118025000D03*
X135650000Y-118025000D03*
X135150000Y-118025000D03*
X134650000Y-118025000D03*
X134150000Y-118025000D03*
X133650000Y-118025000D03*
D21*
X132900000Y-118150000D03*
D20*
X132775000Y-118900000D03*
X132775000Y-119400000D03*
X132775000Y-119900000D03*
X132775000Y-120400000D03*
X132775000Y-120900000D03*
X132775000Y-121400000D03*
X132775000Y-121900000D03*
X132775000Y-122400000D03*
X132775000Y-122900000D03*
X132775000Y-123400000D03*
X132775000Y-123900000D03*
X132775000Y-124400000D03*
X132775000Y-124900000D03*
X132775000Y-125400000D03*
X132775000Y-125900000D03*
X132775000Y-126400000D03*
X132775000Y-126900000D03*
X132775000Y-127400000D03*
D21*
X132900000Y-128150000D03*
D22*
X133650000Y-128275000D03*
X134150000Y-128275000D03*
X134650000Y-128275000D03*
X135150000Y-128275000D03*
X135650000Y-128275000D03*
X136150000Y-128275000D03*
X136650000Y-128275000D03*
X137150000Y-128275000D03*
X137650000Y-128275000D03*
X138150000Y-128275000D03*
X138650000Y-128275000D03*
X139150000Y-128275000D03*
X139650000Y-128275000D03*
X140150000Y-128275000D03*
X140650000Y-128275000D03*
X141150000Y-128275000D03*
X141650000Y-128275000D03*
X142150000Y-128275000D03*
X142650000Y-128275000D03*
X143150000Y-128275000D03*
D23*
X142500000Y-126550000D03*
X142500000Y-126000000D03*
X142500000Y-125450000D03*
X142500000Y-123700000D03*
X142500000Y-123150000D03*
X142500000Y-122600000D03*
X142500000Y-120850000D03*
X142500000Y-120300000D03*
X142500000Y-119750000D03*
X138950000Y-121000000D03*
X138400000Y-121000000D03*
X137850000Y-121000000D03*
X134300000Y-119750000D03*
X134300000Y-120300000D03*
X134300000Y-120850000D03*
X134300000Y-122600000D03*
X134300000Y-123150000D03*
X134300000Y-123700000D03*
X134300000Y-125450000D03*
X134300000Y-126000000D03*
X134300000Y-126550000D03*
X137850000Y-125300000D03*
X138400000Y-125300000D03*
X138950000Y-125300000D03*
D24*
X141250000Y-126000000D03*
X141250000Y-123150000D03*
X141250000Y-120300000D03*
D25*
X138400000Y-119575000D03*
D24*
X135550000Y-120300000D03*
X135550000Y-123150000D03*
X135550000Y-126000000D03*
D25*
X138400000Y-126725000D03*
D24*
X138400000Y-123150000D03*
D16*
X136175000Y-116500000D03*
X134625000Y-116500000D03*
D26*
X135050000Y-137050000D03*
X139150000Y-137050000D03*
X135050000Y-138650000D03*
X139150000Y-138650000D03*
D27*
X114400000Y-97740000D03*
X113900000Y-97740000D03*
X113400000Y-97740000D03*
X112900000Y-97740000D03*
X112400000Y-97740000D03*
X111900000Y-97740000D03*
D28*
X111215000Y-98425000D03*
X111215000Y-98925000D03*
X111215000Y-99425000D03*
X111215000Y-99925000D03*
X111215000Y-100425000D03*
X111215000Y-100925000D03*
D27*
X111900000Y-101610000D03*
X112400000Y-101610000D03*
X112900000Y-101610000D03*
X113400000Y-101610000D03*
X113900000Y-101610000D03*
X114400000Y-101610000D03*
D28*
X115085000Y-100925000D03*
X115085000Y-100425000D03*
X115085000Y-99925000D03*
X115085000Y-99425000D03*
X115085000Y-98925000D03*
X115085000Y-98425000D03*
D29*
X113150000Y-99675000D03*
D30*
X99943750Y-118500000D03*
D31*
X148450000Y-126350000D03*
X148450000Y-124750000D03*
D11*
X118275000Y-98410000D03*
X119925000Y-98410000D03*
D12*
X148500000Y-104050000D03*
X123225000Y-95850000D03*
D13*
X157450000Y-108000000D03*
X157450000Y-109650000D03*
D32*
X123850000Y-131750000D03*
X121050000Y-131750000D03*
D33*
X143225000Y-114050000D03*
X144775000Y-114050000D03*
D19*
X137000000Y-131675000D03*
X137000000Y-133225000D03*
D34*
X160080000Y-138020000D03*
X160080000Y-132980000D03*
X157540000Y-138020000D03*
X157540000Y-132980000D03*
X155000000Y-138020000D03*
X155000000Y-132980000D03*
X152460000Y-138020000D03*
X152460000Y-132980000D03*
X149920000Y-138020000D03*
X149920000Y-132980000D03*
D35*
X107250000Y-103175000D03*
X105600000Y-103175000D03*
D19*
X135450000Y-131650000D03*
X135450000Y-133200000D03*
D36*
X103250000Y-103075000D03*
X103250000Y-101525000D03*
D13*
X133350000Y-131525000D03*
X133350000Y-133175000D03*
D32*
X124100000Y-126450000D03*
X121300000Y-126450000D03*
D19*
X121750000Y-89825000D03*
X121750000Y-91375000D03*
D13*
X122943750Y-119275000D03*
X122943750Y-120925000D03*
D19*
X136200000Y-113275000D03*
X136200000Y-114825000D03*
D11*
X121700000Y-93100000D03*
X123350000Y-93100000D03*
D33*
X149675000Y-118700000D03*
X151225000Y-118700000D03*
D16*
X116225000Y-104010000D03*
X114675000Y-104010000D03*
D13*
X126000000Y-96500000D03*
X126000000Y-98150000D03*
D33*
X115668750Y-118600000D03*
X117218750Y-118600000D03*
D37*
X141850000Y-130950000D03*
X141850000Y-133750000D03*
D13*
X138500000Y-131625000D03*
X138500000Y-133275000D03*
D19*
X134750000Y-94675000D03*
X134750000Y-96225000D03*
D12*
X142700000Y-137050000D03*
D32*
X124050000Y-129050000D03*
X121250000Y-129050000D03*
D38*
X113731250Y-118600000D03*
X112156250Y-118600000D03*
D37*
X130650000Y-130400000D03*
X130650000Y-133200000D03*
D13*
X146450000Y-132975000D03*
X146450000Y-134625000D03*
D39*
X132850000Y-104500000D03*
X138150000Y-104500000D03*
D40*
X136200000Y-106100000D03*
D41*
X115540000Y-92450000D03*
X109760000Y-92450000D03*
D42*
X115850000Y-93525000D03*
X115050000Y-93525000D03*
D43*
X113900000Y-93525000D03*
X112900000Y-93525000D03*
X112400000Y-93525000D03*
X111400000Y-93525000D03*
D42*
X110250000Y-93525000D03*
X109450000Y-93525000D03*
X109450000Y-93525000D03*
X110250000Y-93525000D03*
D43*
X110900000Y-93525000D03*
X111900000Y-93525000D03*
X113400000Y-93525000D03*
X114400000Y-93525000D03*
D42*
X115050000Y-93525000D03*
X115850000Y-93525000D03*
D44*
X117760000Y-92950000D03*
X117760000Y-89020000D03*
X107540000Y-92950000D03*
X107540000Y-89020000D03*
D45*
X154400000Y-112050000D03*
X148600000Y-112050000D03*
X154400000Y-108050000D03*
X148600000Y-108050000D03*
D33*
X143225000Y-115550000D03*
X144775000Y-115550000D03*
X118675000Y-104160000D03*
X120225000Y-104160000D03*
D12*
X131500000Y-97500000D03*
D46*
X129425000Y-89625000D03*
X127425000Y-89625000D03*
D32*
X121343750Y-112100000D03*
X118543750Y-112100000D03*
D16*
X141525000Y-115525000D03*
X139975000Y-115525000D03*
X141475000Y-114050000D03*
X139925000Y-114050000D03*
D11*
X117675000Y-129050000D03*
X119325000Y-129050000D03*
D47*
X119843750Y-118600000D03*
X119843750Y-119000000D03*
X119443750Y-118600000D03*
X119443750Y-119000000D03*
D35*
X120268750Y-114600000D03*
X118618750Y-114600000D03*
D48*
X127560200Y-99295400D03*
X128500000Y-99295400D03*
X129439800Y-99295400D03*
X129439800Y-96704600D03*
X127560200Y-96704600D03*
D33*
X105775000Y-100075000D03*
X107325000Y-100075000D03*
D38*
X136137500Y-111750000D03*
X134562500Y-111750000D03*
M02*
